<svg width="17" height="17" viewBox="0 0 17 17" fill="none" xmlns="http://www.w3.org/2000/svg">
    <g clip-path="url(#clip0_233_261)">
        <path
            d="M14.1667 0H3.54175C2.97816 0 2.43766 0.223883 2.03915 0.622398C1.64063 1.02091 1.41675 1.56141 1.41675 2.125V13.8125C1.41769 14.6576 1.75381 15.4678 2.35138 16.0654C2.94895 16.6629 3.75916 16.9991 4.60425 17H15.5834V1.41667C15.5834 1.04094 15.4342 0.680609 15.1685 0.414932C14.9028 0.149256 14.5425 0 14.1667 0V0ZM5.66675 2.125V10.625H4.60425C4.24146 10.6285 3.88201 10.6946 3.54175 10.8205V2.125H5.66675ZM13.4584 14.875H4.60425C4.32246 14.875 4.0522 14.7631 3.85295 14.5638C3.65369 14.3645 3.54175 14.0943 3.54175 13.8125C3.54175 13.5307 3.65369 13.2605 3.85295 13.0612C4.0522 12.8619 4.32246 12.75 4.60425 12.75H13.4584V14.875ZM7.79175 10.625V2.125H13.4584V10.625H7.79175Z"
            fill="#F6B34F" />
    </g>
    <defs>
        <clipPath id="clip0_233_261">
            <rect width="17" height="17" fill="white" />
        </clipPath>
    </defs>
</svg>
    