<svg width="37" height="37" viewBox="0 0 37 37" fill="none" xmlns="http://www.w3.org/2000/svg">
    <g clip-path="url(#clip0_47_1030)">
        <path
            d="M18.5 0C14.8411 0 11.2643 1.08501 8.22196 3.11781C5.17965 5.15062 2.80846 8.03992 1.40824 11.4204C0.00801579 14.8008 -0.358346 18.5205 0.355481 22.1092C1.06931 25.6978 2.83126 28.9942 5.41853 31.5815C8.0058 34.1687 11.3022 35.9307 14.8908 36.6445C18.4795 37.3584 22.1992 36.992 25.5797 35.5918C28.9601 34.1916 31.8494 31.8204 33.8822 28.7781C35.915 25.7357 37 22.159 37 18.5C36.9947 13.5951 35.0439 8.89266 31.5756 5.42438C28.1074 1.95611 23.4049 0.005305 18.5 0V0ZM26.2083 20.0417H20.0417V26.2083H16.9583V20.0417H10.7917V16.9583H16.9583V10.7917H20.0417V16.9583H26.2083V20.0417Z"
            fill="#F6B34F" />
    </g>
    <defs>
        <clipPath id="clip0_47_1030">
            <rect width="37" height="37" fill="white" />
        </clipPath>
    </defs>
</svg>
    