<svg width="32" height="30" viewBox="0 0 32 30"  fill="currentColor" xmlns="http://www.w3.org/2000/svg">
    <path
        d="M19.1993 4.22782L19.6966 4.17618V4.17618L19.1993 4.22782ZM18.8268 2.79427L19.1811 2.44141L19.1811 2.4414L18.8268 2.79427ZM19.9077 6.68608L19.6776 7.13001L19.9077 6.68608ZM20.0514 6.74684L19.8932 7.22115H19.8932L20.0514 6.74684ZM22.3083 5.54228L22.6178 5.93502L22.6178 5.93502L22.3083 5.54228ZM22.4021 5.46837L22.0927 5.07564L22.0927 5.07564L22.4021 5.46837ZM23.7449 4.71934L23.7697 4.21995L23.7671 4.21983L23.7449 4.71934ZM23.7555 4.71987L23.783 4.22061L23.7803 4.22048L23.7555 4.71987ZM25.0175 5.59824L24.6707 5.95839L24.6707 5.95839L25.0175 5.59824ZM26.1777 6.71545L26.5245 6.35529L26.1777 6.71545ZM27.0555 7.84398L27.5495 7.76722L27.5495 7.76722L27.0555 7.84398ZM27.0658 8.05163L27.5651 8.07869V8.07869L27.0658 8.05163ZM26.3051 9.26214L26.6861 9.58587L26.3051 9.26214ZM25.0259 11.4001L24.5397 11.5164V11.5164L25.0259 11.4001ZM25.1386 11.6779L24.7086 11.9331V11.9331L25.1386 11.6779ZM27.5455 12.321L27.5935 11.8233L27.5935 11.8233L27.5455 12.321ZM27.6642 12.3325L27.6162 12.8302L27.6163 12.8302L27.6642 12.3325ZM29.1054 12.6956L29.4562 12.3393L29.4561 12.3393L29.1054 12.6956ZM29.1805 12.7784L28.7922 13.0933L28.7922 13.0934L29.1805 12.7784ZM29.1806 17.2215L28.7923 16.9066L28.7923 16.9066L29.1806 17.2215ZM29.1053 17.3044L29.456 17.6608L29.456 17.6608L29.1053 17.3044ZM27.6643 17.6675L27.6164 17.1698L27.6643 17.6675ZM27.5456 17.679L27.5935 18.1767L27.5456 17.679ZM25.1392 18.3219L24.7093 18.0665L24.7093 18.0665L25.1392 18.3219ZM25.0264 18.6001L25.5127 18.7163V18.7163L25.0264 18.6001ZM26.3053 20.7375L25.9242 21.0612L25.9374 21.0767L25.9517 21.091L26.3053 20.7375ZM26.3053 20.7375L26.6863 20.4137L26.6732 20.3983L26.6588 20.3839L26.3053 20.7375ZM27.0659 21.9476L27.5652 21.9205L27.0659 21.9476ZM27.0555 22.1556L26.5614 22.0788L27.0555 22.1556ZM26.1779 23.2838L26.5247 23.644L26.1779 23.2838ZM25.0176 24.4012L24.6708 24.0411L25.0176 24.4012ZM23.7556 25.2796L23.7803 25.779L23.783 25.7788L23.7556 25.2796ZM23.745 25.2801L23.7672 25.7796L23.7698 25.7795L23.745 25.2801ZM22.4022 24.5311L22.7116 24.1383L22.4022 24.5311ZM22.3087 24.4574L21.9992 24.8501L21.9992 24.8501L22.3087 24.4574ZM20.0512 23.2527L19.8929 22.7784L19.8929 22.7784L20.0512 23.2527ZM19.9079 23.3133L19.678 22.8693L19.678 22.8693L19.9079 23.3133ZM19.1993 25.772L19.6966 25.8236L19.6966 25.8236L19.1993 25.772ZM18.8267 27.2058L18.4725 26.8529L18.4725 26.8529L18.8267 27.2058ZM18.7472 27.2775L18.4328 26.8887L18.4328 26.8887L18.7472 27.2775ZM14.1006 27.2776L14.415 26.8888L14.415 26.8888L14.1006 27.2776ZM14.0209 27.2057L13.6667 27.5586L13.6667 27.5586L14.0209 27.2057ZM13.6485 25.7722L13.1511 25.8238V25.8238L13.6485 25.7722ZM12.9401 23.3139L13.1701 22.8699L13.1701 22.8699L12.9401 23.3139ZM12.7964 23.2531L12.6382 23.7274H12.6382L12.7964 23.2531ZM10.5394 24.4577L10.8488 24.8504L10.8488 24.8504L10.5394 24.4577ZM10.4456 24.5316L10.1361 24.1389L10.1361 24.1389L10.4456 24.5316ZM9.10267 25.2807L9.07786 25.7801L9.0805 25.7802L9.10267 25.2807ZM9.09215 25.2801L9.06472 25.7794L9.06734 25.7795L9.09215 25.2801ZM7.83008 24.4017L8.17691 24.0416H8.17691L7.83008 24.4017ZM6.67001 23.2846L7.01684 22.9244L7.01684 22.9244L6.67001 23.2846ZM5.79219 22.156L5.29812 22.2328H5.29812L5.79219 22.156ZM5.7818 21.9484L5.28253 21.9213L5.7818 21.9484ZM6.54259 20.7379L6.92373 21.0617L6.93065 21.0532L6.54259 20.7379ZM6.5426 20.7379L6.16146 20.4141L6.15454 20.4226L6.5426 20.7379ZM7.82172 18.5999L7.33544 18.7162L7.33544 18.7162L7.82172 18.5999ZM7.70908 18.3221L7.27912 18.5773H7.27912L7.70908 18.3221ZM5.30212 17.679L5.35005 17.1813H5.35005L5.30212 17.679ZM5.18355 17.6675L5.13562 18.1652H5.13562L5.18355 17.6675ZM3.74237 17.3044L4.09311 16.948L4.09311 16.948L3.74237 17.3044ZM3.66719 17.2216L4.05552 16.9066L4.05552 16.9066L3.66719 17.2216ZM3.66727 12.7783L4.05556 13.0933H4.05556L3.66727 12.7783ZM3.74228 12.6957L4.09306 13.052H4.09306L3.74228 12.6957ZM5.1837 12.3324L5.13577 11.8348H5.13577L5.1837 12.3324ZM5.30216 12.321L5.35009 12.8187H5.35009L5.30216 12.321ZM7.7097 11.6776L8.13972 11.9327L8.13972 11.9327L7.7097 11.6776ZM7.82215 11.4003L7.3359 11.2839L7.3359 11.2839L7.82215 11.4003ZM6.5428 9.26174L6.16175 9.58548L6.5428 9.26174ZM5.78185 8.05088L5.28258 8.07785V8.07785L5.78185 8.05088ZM5.79222 7.84359L5.29813 7.76692L5.29813 7.76693L5.79222 7.84359ZM6.67022 6.71472L7.01711 7.07494L7.02377 7.06828L6.67022 6.71472ZM6.67022 6.71472L6.32333 6.35451L6.31667 6.36117L6.67022 6.71472ZM7.83014 5.5977L7.48331 5.23755L7.4833 5.23755L7.83014 5.5977ZM9.09221 4.7193L9.06742 4.21991L9.06478 4.22005L9.09221 4.7193ZM9.10273 4.71878L9.08056 4.21926L9.07794 4.21939L9.10273 4.71878ZM10.4456 5.46783L10.7551 5.0751L10.7551 5.0751L10.4456 5.46783ZM10.5397 5.542L10.2303 5.93473L10.2303 5.93473L10.5397 5.542ZM12.7962 6.74641L12.9543 7.22076L12.9543 7.22075L12.7962 6.74641ZM12.9403 6.6855L12.7102 6.2416L12.7102 6.2416L12.9403 6.6855ZM13.6485 4.22766L13.1511 4.17601V4.17601L13.6485 4.22766ZM14.0208 2.79436L14.3751 3.14718L14.3751 3.14718L14.0208 2.79436ZM14.1007 2.72233L14.4151 3.11117L14.4151 3.11117L14.1007 2.72233ZM18.7471 2.72242L18.4327 3.11121L18.4327 3.11121L18.7471 2.72242ZM19.6966 4.17618C19.6569 3.79409 19.6234 3.46337 19.5637 3.19899C19.5011 2.92254 19.3982 2.65934 19.1811 2.44141L18.4726 3.14714C18.5051 3.17982 18.5475 3.23908 18.5883 3.41959C18.6318 3.61218 18.6598 3.87292 18.702 4.27946L19.6966 4.17618ZM20.1377 6.24214C20.0948 6.21993 20.0047 6.15492 19.9168 5.79714C19.829 5.43939 19.7747 4.92843 19.6966 4.17618L18.702 4.27946C18.7769 5.00062 18.8374 5.59472 18.9457 6.0357C19.054 6.47667 19.2416 6.90408 19.6776 7.13001L20.1377 6.24214ZM20.2096 6.27252C20.1849 6.26428 20.1608 6.25412 20.1377 6.24214L19.6776 7.13001C19.747 7.16596 19.8191 7.19643 19.8932 7.22115L20.2096 6.27252ZM21.9989 5.14955C21.4048 5.61762 21.0005 5.93471 20.6827 6.12092C20.3648 6.30714 20.2554 6.28779 20.2096 6.27252L19.8932 7.22115C20.359 7.37651 20.7963 7.21328 21.1881 6.98377C21.5799 6.75424 22.0483 6.38374 22.6178 5.93502L21.9989 5.14955ZM22.0927 5.07564L21.9989 5.14955L22.6178 5.93502L22.7116 5.86111L22.0927 5.07564ZM23.7671 4.21983C23.4456 4.20557 23.1726 4.31536 22.9192 4.46804C22.6777 4.61354 22.4063 4.8285 22.0927 5.07564L22.7116 5.86111C23.0456 5.59792 23.2601 5.43013 23.4352 5.32458C23.5985 5.22621 23.6731 5.21664 23.7228 5.21885L23.7671 4.21983ZM23.7803 4.22048L23.7697 4.21995L23.7202 5.21872L23.7307 5.21925L23.7803 4.22048ZM25.3644 5.23809C25.0767 4.96109 24.828 4.72031 24.6022 4.55161C24.3651 4.37458 24.1044 4.23828 23.783 4.22062L23.7281 5.21911C23.7778 5.22184 23.851 5.23875 24.0038 5.35281C24.1676 5.47519 24.3644 5.6634 24.6707 5.95839L25.3644 5.23809ZM26.5245 6.35529L25.3644 5.23809L24.6707 5.95839L25.8308 7.0756L26.5245 6.35529ZM27.5495 7.76722C27.5043 7.47635 27.3623 7.2445 27.1889 7.03497C27.0225 6.83383 26.7914 6.61239 26.5245 6.35529L25.8308 7.0756C26.1146 7.34885 26.2966 7.52517 26.4184 7.67246C26.5334 7.81135 26.5548 7.8786 26.5614 7.92074L27.5495 7.76722ZM27.5651 8.07869C27.5708 7.9746 27.5655 7.87022 27.5495 7.76722L26.5614 7.92074C26.5667 7.95508 26.5685 7.98987 26.5666 8.02456L27.5651 8.07869ZM26.6861 9.58587C26.9261 9.30342 27.1339 9.06003 27.2794 8.84328C27.431 8.61749 27.5492 8.37262 27.5651 8.07869L26.5666 8.02456C26.5643 8.06715 26.5496 8.1362 26.4491 8.28587C26.3426 8.44459 26.1791 8.63819 25.924 8.9384L26.6861 9.58587ZM25.5122 11.2838C25.5028 11.2442 25.4926 11.1353 25.6912 10.8296C25.8876 10.5273 26.211 10.1451 26.6861 9.58587L25.924 8.9384C25.4677 9.4755 25.0925 9.91555 24.8526 10.2848C24.615 10.6506 24.4311 11.0626 24.5397 11.5164L25.5122 11.2838ZM25.5685 11.4226C25.5429 11.3794 25.5239 11.3326 25.5122 11.2838L24.5397 11.5164C24.5747 11.663 24.6317 11.8035 24.7086 11.9331L25.5685 11.4226ZM27.5935 11.8233C26.863 11.753 26.3648 11.704 26.0134 11.6239C25.6579 11.5428 25.5893 11.4577 25.5685 11.4226L24.7086 11.9331C24.9468 12.3344 25.3658 12.5019 25.791 12.5988C26.2204 12.6967 26.7961 12.7512 27.4976 12.8187L27.5935 11.8233ZM27.7121 11.8348L27.5935 11.8233L27.4976 12.8187L27.6162 12.8302L27.7121 11.8348ZM29.4561 12.3393C29.2363 12.1229 28.9716 12.0216 28.6939 11.9609C28.4282 11.9029 28.096 11.8717 27.7121 11.8348L27.6163 12.8302C28.0247 12.8695 28.2868 12.8956 28.4805 12.9379C28.6621 12.9776 28.7218 13.0196 28.7547 13.052L29.4561 12.3393ZM29.5689 12.4634C29.5336 12.42 29.496 12.3785 29.4562 12.3393L28.7546 13.052C28.7679 13.0651 28.7805 13.0789 28.7922 13.0933L29.5689 12.4634ZM29.9039 14.2478C29.9039 13.8621 29.9047 13.5285 29.8724 13.2585C29.8387 12.9762 29.7632 12.703 29.5689 12.4634L28.7922 13.0934C28.8213 13.1292 28.8574 13.1926 28.8795 13.3772C28.9031 13.5741 28.9039 13.8375 28.9039 14.2478H29.9039ZM29.9039 15.7524V14.2478H28.9039V15.7524H29.9039ZM29.569 17.5364C29.7632 17.2969 29.8387 17.0237 29.8725 16.7415C29.9047 16.4716 29.9039 16.138 29.9039 15.7524H28.9039C28.9039 16.1626 28.9031 16.426 28.8795 16.6228C28.8575 16.8074 28.8213 16.8708 28.7923 16.9066L29.569 17.5364ZM29.456 17.6608C29.496 17.6215 29.5337 17.58 29.569 17.5364L28.7923 16.9066C28.7805 16.9211 28.7679 16.935 28.7546 16.9481L29.456 17.6608ZM27.7123 18.1652C28.0961 18.1283 28.4282 18.0971 28.6938 18.0391C28.9715 17.9785 29.2362 17.8771 29.456 17.6608L28.7546 16.9481C28.7217 16.9804 28.6621 17.0225 28.4805 17.0621C28.2868 17.1044 28.0248 17.1305 27.6164 17.1698L27.7123 18.1652ZM27.5935 18.1767L27.7123 18.1652L27.6164 17.1698L27.4976 17.1813L27.5935 18.1767ZM25.5691 18.5772C25.5899 18.5422 25.6584 18.4571 26.0138 18.3761C26.3652 18.296 26.8633 18.247 27.5935 18.1767L27.4976 17.1813C26.7963 17.2488 26.2208 17.3032 25.7915 17.4011C25.3664 17.498 24.9476 17.6654 24.7093 18.0665L25.5691 18.5772ZM25.5127 18.7163C25.5244 18.6674 25.5434 18.6205 25.5691 18.5772L24.7093 18.0665C24.6322 18.1963 24.5752 18.337 24.5401 18.4839L25.5127 18.7163ZM26.6863 20.4137C26.2113 19.8547 25.888 19.4726 25.6917 19.1704C25.4931 18.8647 25.5032 18.7559 25.5127 18.7163L24.5401 18.4839C24.4316 18.9376 24.6156 19.3495 24.8531 19.7152C25.0929 20.0843 25.468 20.5243 25.9242 21.0612L26.6863 20.4137ZM26.6588 20.3839L26.6588 20.3839L25.9517 21.091L25.9517 21.091L26.6588 20.3839ZM27.5652 21.9205C27.5492 21.6266 27.431 21.3819 27.2794 21.1561C27.1339 20.9394 26.9262 20.6961 26.6863 20.4137L25.9242 21.0612C26.1792 21.3613 26.3427 21.5549 26.4492 21.7136C26.5497 21.8632 26.5643 21.9322 26.5666 21.9748L27.5652 21.9205ZM27.5495 22.2325C27.5656 22.1293 27.5708 22.0248 27.5652 21.9205L26.5666 21.9748C26.5685 22.0095 26.5668 22.0444 26.5614 22.0788L27.5495 22.2325ZM26.5247 23.644C26.7916 23.387 27.0226 23.1656 27.1889 22.9645C27.3623 22.755 27.5043 22.5233 27.5495 22.2325L26.5614 22.0788C26.5549 22.1209 26.5334 22.1881 26.4185 22.327C26.2967 22.4742 26.1147 22.6505 25.831 22.9237L26.5247 23.644ZM25.3644 24.7614L26.5247 23.644L25.831 22.9237L24.6708 24.0411L25.3644 24.7614ZM23.783 25.7788C24.1044 25.7612 24.3652 25.6249 24.6022 25.4478C24.8281 25.2791 25.0768 25.0384 25.3644 24.7614L24.6708 24.0411C24.3645 24.336 24.1677 24.5243 24.0038 24.6466C23.8511 24.7607 23.7779 24.7776 23.7282 24.7803L23.783 25.7788ZM23.7698 25.7795L23.7803 25.779L23.7308 24.7802L23.7203 24.7807L23.7698 25.7795ZM22.0927 24.9238C22.4064 25.1709 22.6777 25.3859 22.9192 25.5314C23.1726 25.6841 23.4456 25.7939 23.7672 25.7796L23.7229 24.7806C23.6731 24.7828 23.5986 24.7732 23.4353 24.6749C23.2601 24.5693 23.0457 24.4015 22.7116 24.1383L22.0927 24.9238ZM21.9992 24.8501L22.0927 24.9238L22.7116 24.1383L22.6181 24.0647L21.9992 24.8501ZM20.2095 23.727C20.2553 23.7117 20.3647 23.6923 20.6827 23.8785C21.0006 24.0648 21.405 24.382 21.9992 24.8501L22.6181 24.0647C22.0485 23.6158 21.58 23.2453 21.1881 23.0157C20.7962 22.7861 20.3589 22.6229 19.8929 22.7784L20.2095 23.727ZM20.1379 23.7573C20.1609 23.7453 20.1849 23.7352 20.2095 23.727L19.8929 22.7784C19.819 22.8031 19.7472 22.8334 19.678 22.8693L20.1379 23.7573ZM19.6966 25.8236C19.7748 25.0712 19.829 24.5601 19.9169 24.2023C20.0048 23.8445 20.095 23.7795 20.1379 23.7573L19.678 22.8693C19.2418 23.0952 19.0542 23.5227 18.9458 23.9637C18.8374 24.4048 18.7769 24.999 18.702 25.7204L19.6966 25.8236ZM19.1809 27.5588C19.3981 27.3408 19.5011 27.0776 19.5636 26.801C19.6234 26.5366 19.657 26.2058 19.6966 25.8236L18.702 25.7204C18.6598 26.127 18.6318 26.3878 18.5883 26.5804C18.5474 26.761 18.5051 26.8202 18.4725 26.8529L19.1809 27.5588ZM19.0617 27.6662C19.1033 27.6326 19.1431 27.5967 19.1809 27.5587L18.4725 26.8529C18.4599 26.8656 18.4467 26.8775 18.4328 26.8887L19.0617 27.6662ZM17.2826 28C17.6668 28 17.9993 28.0008 18.2685 27.9687C18.55 27.935 18.8225 27.8597 19.0617 27.6662L18.4328 26.8887C18.3969 26.9178 18.3336 26.9537 18.1498 26.9757C17.9537 26.9992 17.6914 27 17.2826 27V28ZM15.565 28H17.2826V27H15.565V28ZM13.7862 27.6664C14.0254 27.8598 14.2978 27.935 14.5793 27.9687C14.8484 28.0008 15.1809 28 15.565 28V27C15.1563 27 14.894 26.9992 14.698 26.9757C14.5142 26.9538 14.4509 26.9178 14.415 26.8888L13.7862 27.6664ZM13.6667 27.5586C13.7046 27.5966 13.7445 27.6326 13.7862 27.6664L14.415 26.8888C14.4011 26.8775 14.3878 26.8655 14.3752 26.8529L13.6667 27.5586ZM13.1511 25.8238C13.1908 26.2059 13.2243 26.5366 13.2841 26.801C13.3466 27.0775 13.4496 27.3407 13.6667 27.5586L14.3752 26.8529C14.3426 26.8202 14.3003 26.7609 14.2595 26.5804C14.2159 26.3878 14.188 26.1271 14.1458 25.7205L13.1511 25.8238ZM12.71 23.7578C12.7529 23.78 12.843 23.845 12.9309 24.2028C13.0188 24.5606 13.073 25.0715 13.1511 25.8238L14.1458 25.7205C14.0709 24.9993 14.0104 24.4052 13.902 23.9642C13.7937 23.5233 13.6061 23.0958 13.1701 22.8699L12.71 23.7578ZM12.6382 23.7274C12.6629 23.7357 12.6869 23.7458 12.71 23.7578L13.1701 22.8699C13.1007 22.834 13.0287 22.8035 12.9546 22.7788L12.6382 23.7274ZM10.8488 24.8504C11.4429 24.3823 11.8472 24.0652 12.1651 23.879C12.483 23.6928 12.5924 23.7121 12.6382 23.7274L12.9546 22.7788C12.4888 22.6234 12.0514 22.7866 11.6596 23.0162C11.2678 23.2457 10.7994 23.6162 10.2299 24.0649L10.8488 24.8504ZM10.755 24.9244L10.8488 24.8504L10.2299 24.0649L10.1361 24.1389L10.755 24.9244ZM9.0805 25.7802C9.40207 25.7944 9.67507 25.6847 9.92849 25.532C10.17 25.3865 10.4413 25.1715 10.755 24.9243L10.1361 24.1389C9.80206 24.4021 9.5876 24.5699 9.41241 24.6754C9.24914 24.7738 9.17457 24.7834 9.12483 24.7812L9.0805 25.7802ZM9.06734 25.7795L9.07786 25.7801L9.12748 24.7813L9.11696 24.7808L9.06734 25.7795ZM7.48325 24.7619C7.7709 25.0389 8.0196 25.2797 8.2455 25.4484C8.48254 25.6254 8.74333 25.7617 9.06472 25.7794L9.11958 24.7809C9.06987 24.7782 8.99661 24.7613 8.84389 24.6472C8.68002 24.5248 8.48324 24.3366 8.17691 24.0416L7.48325 24.7619ZM6.32317 23.6447L7.48325 24.7619L8.17691 24.0416L7.01684 22.9244L6.32317 23.6447ZM5.29812 22.2328C5.3433 22.5237 5.48538 22.7555 5.65875 22.965C5.82517 23.1662 6.05621 23.3876 6.32317 23.6447L7.01684 22.9244C6.73308 22.6512 6.55108 22.4748 6.42921 22.3276C6.31428 22.1887 6.29281 22.1214 6.28626 22.0793L5.29812 22.2328ZM5.28253 21.9213C5.27689 22.0254 5.28212 22.1298 5.29812 22.2328L6.28626 22.0793C6.28093 22.0449 6.27919 22.0101 6.28107 21.9755L5.28253 21.9213ZM6.16154 20.4141C5.92157 20.6966 5.7138 20.94 5.56828 21.1567C5.41669 21.3825 5.29847 21.6274 5.28253 21.9213L6.28107 21.9755C6.28338 21.9329 6.29803 21.8638 6.39852 21.7141C6.50508 21.5554 6.66857 21.3618 6.92363 21.0616L6.16154 20.4141ZM6.15454 20.4226L6.15453 20.4226L6.93065 21.0532L6.93066 21.0532L6.15454 20.4226ZM7.33544 18.7162C7.34492 18.7558 7.35504 18.8647 7.15642 19.1704C6.96008 19.4727 6.63668 19.8549 6.16155 20.4141L6.92364 21.0616C7.37997 20.5245 7.75516 20.0844 7.99503 19.7152C8.23263 19.3494 8.41658 18.9374 8.30799 18.4835L7.33544 18.7162ZM7.27912 18.5773C7.30477 18.6205 7.32375 18.6674 7.33544 18.7162L8.30799 18.4835C8.27293 18.337 8.21597 18.1965 8.13904 18.0669L7.27912 18.5773ZM5.25419 18.1767C5.98464 18.247 6.4829 18.296 6.83431 18.3761C7.18979 18.4572 7.25834 18.5423 7.27912 18.5773L8.13904 18.0669C7.90083 17.6656 7.48189 17.4981 7.05663 17.4011C6.62731 17.3032 6.05159 17.2488 5.35005 17.1813L5.25419 18.1767ZM5.13562 18.1652L5.25419 18.1767L5.35005 17.1813L5.23147 17.1698L5.13562 18.1652ZM3.39163 17.6607C3.61146 17.8771 3.87621 17.9784 4.1539 18.0391C4.41955 18.0971 4.75171 18.1283 5.13562 18.1652L5.23148 17.1698C4.82306 17.1305 4.56098 17.1044 4.36729 17.0621C4.18565 17.0224 4.12597 16.9804 4.09311 16.948L3.39163 17.6607ZM3.27886 17.5366C3.31411 17.58 3.35176 17.6215 3.39164 17.6607L4.09311 16.948C4.07982 16.9349 4.06727 16.9211 4.05552 16.9066L3.27886 17.5366ZM2.94385 15.7523C2.94385 16.1379 2.94301 16.4716 2.9753 16.7415C3.00906 17.0238 3.08457 17.297 3.27887 17.5366L4.05552 16.9066C4.02647 16.8708 3.99031 16.8074 3.96823 16.6228C3.94468 16.4259 3.94385 16.1626 3.94385 15.7523H2.94385ZM2.94385 14.2479V15.7523H3.94385V14.2479H2.94385ZM3.27899 12.4633C3.08462 12.7029 3.00908 12.9762 2.97532 13.2584C2.94301 13.5285 2.94385 13.8621 2.94385 14.2479H3.94385C3.94385 13.8375 3.94468 13.5741 3.96824 13.3772C3.99032 13.1926 4.0265 13.1291 4.05556 13.0933L3.27899 12.4633ZM3.3915 12.3394C3.35172 12.3786 3.31416 12.4199 3.27899 12.4633L4.05556 13.0933C4.06728 13.0789 4.0798 13.0651 4.09306 13.052L3.3915 12.3394ZM5.13577 11.8348C4.75179 11.8717 4.41957 11.9029 4.15387 11.9609C3.87613 12.0216 3.61134 12.123 3.3915 12.3394L4.09306 13.052C4.12593 13.0197 4.18561 12.9776 4.36729 12.9379C4.56101 12.8956 4.82314 12.8695 5.23163 12.8301L5.13577 11.8348ZM5.25423 11.8233L5.13577 11.8348L5.23163 12.8301L5.35009 12.8187L5.25423 11.8233ZM7.27968 11.4225C7.25889 11.4575 7.19035 11.5427 6.83479 11.6238C6.48328 11.704 5.98488 11.753 5.25423 11.8233L5.35009 12.8187C6.05183 12.7512 6.62771 12.6967 7.05714 12.5988C7.48251 12.5018 7.90155 12.3342 8.13972 11.9327L7.27968 11.4225ZM7.3359 11.2839C7.32422 11.3326 7.30527 11.3794 7.27968 11.4225L8.13972 11.9327C8.21649 11.8033 8.27335 11.6631 8.30839 11.5168L7.3359 11.2839ZM6.16175 9.58548C6.63702 10.1449 6.96051 10.5272 7.15689 10.8295C7.35554 11.1354 7.34539 11.2442 7.3359 11.2839L8.30839 11.5168C8.41713 11.0628 8.23317 10.6507 7.99551 10.2848C7.75559 9.91544 7.3803 9.47526 6.92384 8.93801L6.16175 9.58548ZM5.28258 8.07785C5.29846 8.37187 5.4167 8.61682 5.56833 8.84267C5.71388 9.05948 5.92171 9.30295 6.16175 9.58548L6.92384 8.93801C6.66871 8.63771 6.50516 8.44405 6.39858 8.28529C6.29807 8.13558 6.28342 8.0665 6.28112 8.02391L5.28258 8.07785ZM5.29813 7.76693C5.28218 7.86975 5.27697 7.97395 5.28258 8.07785L6.28112 8.02391C6.27925 7.98927 6.28099 7.95454 6.28631 7.92026L5.29813 7.76693ZM6.32339 6.35457C6.05635 6.61174 5.82525 6.83324 5.65879 7.03444C5.48538 7.24404 5.34328 7.47596 5.29813 7.76692L6.28631 7.92026C6.29285 7.87811 6.31432 7.81084 6.42927 7.67191C6.55116 7.52458 6.73322 7.34821 7.01705 7.07487L6.32339 6.35457ZM6.31667 6.36117L6.31666 6.36117L7.02377 7.06828L7.02377 7.06827L6.31667 6.36117ZM7.4833 5.23755L6.32339 6.35457L7.01705 7.07487L8.17697 5.95785L7.4833 5.23755ZM9.06478 4.22005C8.74338 4.23771 8.4826 4.374 8.24555 4.55104C8.01966 4.71975 7.77096 4.96054 7.48331 5.23755L8.17697 5.95785C8.4833 5.66285 8.68007 5.47463 8.84395 5.35224C8.99667 5.23818 9.06993 5.22128 9.11963 5.21854L9.06478 4.22005ZM9.07794 4.21939L9.06742 4.21991L9.11699 5.21868L9.12751 5.21816L9.07794 4.21939ZM10.7551 5.0751C10.4414 4.82794 10.17 4.61297 9.92855 4.46747C9.67513 4.31478 9.40212 4.205 9.08056 4.21927L9.12489 5.21828C9.17462 5.21608 9.2492 5.22564 9.41247 5.32401C9.58766 5.42957 9.80211 5.59737 10.1362 5.86057L10.7551 5.0751ZM10.8492 5.14926L10.7551 5.0751L10.1362 5.86057L10.2303 5.93473L10.8492 5.14926ZM12.6382 6.27206C12.5924 6.28732 12.483 6.30664 12.1651 6.12044C11.8473 5.93426 11.4431 5.61723 10.8492 5.14926L10.2303 5.93473C10.7997 6.38336 11.2679 6.75378 11.6597 6.98328C12.0514 7.21276 12.4886 7.37599 12.9543 7.22076L12.6382 6.27206ZM12.7102 6.2416C12.687 6.25362 12.6629 6.2638 12.6382 6.27206L12.9543 7.22075C13.0287 7.19599 13.1009 7.16544 13.1704 7.12939L12.7102 6.2416ZM13.1511 4.17601C13.073 4.92812 13.0188 5.43897 12.931 5.79666C12.8431 6.15437 12.753 6.21939 12.7102 6.2416L13.1704 7.12939C13.6063 6.90342 13.7938 6.47608 13.9021 6.0352C14.0104 5.59429 14.0709 5.00031 14.1458 4.2793L13.1511 4.17601ZM13.6665 2.44155C13.4495 2.65946 13.3466 2.92262 13.2841 3.19901C13.2243 3.46335 13.1908 3.79401 13.1511 4.17601L14.1458 4.2793C14.188 3.87284 14.2159 3.61215 14.2595 3.4196C14.3003 3.23911 14.3426 3.17986 14.3751 3.14718L13.6665 2.44155ZM13.7864 2.3335C13.7445 2.36734 13.7045 2.40341 13.6665 2.44155L14.3751 3.14718C14.3878 3.13447 14.4011 3.12245 14.4151 3.11117L13.7864 2.3335ZM15.5648 2C15.1808 2 14.8484 1.99917 14.5793 2.03132C14.2979 2.06495 14.0256 2.14016 13.7864 2.3335L14.4151 3.11117C14.4509 3.08217 14.5142 3.04622 14.698 3.02426C14.894 3.00083 15.1562 3 15.5648 3V2ZM17.2828 2H15.5648V3H17.2828V2ZM19.0615 2.33362C18.8223 2.14021 18.5499 2.06497 18.2685 2.03134C17.9993 1.99917 17.6669 2 17.2828 2V3C17.6915 3 17.9537 3.00083 18.1498 3.02427C18.3336 3.04623 18.3969 3.0822 18.4327 3.11121L19.0615 2.33362ZM19.1811 2.4414C19.1432 2.40337 19.1033 2.36739 19.0615 2.33362L18.4327 3.11121C18.4467 3.12246 18.46 3.13445 18.4726 3.14714L19.1811 2.4414ZM21.1159 15C21.1159 17.4677 19.0331 19.5 16.4239 19.5V20.5C19.5496 20.5 22.1159 18.0552 22.1159 15H21.1159ZM16.4239 10.5C19.0331 10.5 21.1159 12.5323 21.1159 15H22.1159C22.1159 11.9448 19.5496 9.5 16.4239 9.5V10.5ZM11.7319 15C11.7319 12.5323 13.8146 10.5 16.4239 10.5V9.5C13.2982 9.5 10.7319 11.9448 10.7319 15H11.7319ZM16.4239 19.5C13.8146 19.5 11.7319 17.4677 11.7319 15H10.7319C10.7319 18.0552 13.2982 20.5 16.4239 20.5V19.5Z"
        fill="white" stroke-width="3" />
</svg>
     