<svg width="29" height="29" viewBox="0 0 29 29" fill="none" xmlns="http://www.w3.org/2000/svg">
    <mask id="mask0_196_138" style="mask-type:luminance" maskUnits="userSpaceOnUse" x="0" y="0"
        width="29" height="29">
        <path d="M28.7653 0.25H0.161987V28.75H28.7653V0.25Z" fill="white" />
    </mask>
    <g mask="url(#mask0_196_138)">
        <path
            d="M28.1932 14.824C28.1932 13.8135 28.1023 12.842 27.9332 11.9092H14.4636V17.4214H22.1605C21.829 19.2026 20.8214 20.7118 19.3067 21.7223V25.2978H23.9288C26.6331 22.817 28.1932 19.1637 28.1932 14.824Z"
            fill="#4285F4" />
        <path
            d="M14.4637 28.75C18.3251 28.75 21.5624 27.4739 23.9286 25.2977L19.3066 21.7222C18.0261 22.5772 16.3878 23.0824 14.4637 23.0824C10.7386 23.0824 7.58584 20.5756 6.46115 17.2075H1.68311V20.8996C4.03645 25.5567 8.87299 28.75 14.4637 28.75Z"
            fill="#34A853" />
        <path
            d="M6.46116 17.2076C6.17513 16.3526 6.01266 15.4393 6.01266 14.5001C6.01266 13.5609 6.17513 12.6476 6.46116 11.7926V8.10059H1.68311C0.714603 10.0243 0.161987 12.2007 0.161987 14.5001C0.161987 16.7995 0.714603 18.9759 1.68311 20.8997L6.46116 17.2076Z"
            fill="#FBBC04" />
        <path
            d="M14.4637 5.91765C16.5633 5.91765 18.4485 6.63657 19.9308 8.0486L24.0328 3.96141C21.556 1.66203 18.3185 0.25 14.4637 0.25C8.87299 0.25 4.03645 3.44328 1.68311 8.10047L6.46115 11.7925C7.58584 8.42437 10.7386 5.91765 14.4637 5.91765Z"
            fill="#E94235" />
    </g>
</svg>
    